<?xml version="1.0" encoding="utf-8"?>
<!-- Generator: Adobe Illustrator 23.0.1, SVG Export Plug-In . SVG Version: 6.00 Build 0)  -->
<svg version="1.1" id="Layer_1" xmlns="http://www.w3.org/2000/svg" xmlns:xlink="http://www.w3.org/1999/xlink" x="0px" y="0px"
	 viewBox="0 0 263 140" style="enable-background:new 0 0 263 140;" xml:space="preserve">
<style type="text/css">
	.st0{fill-rule:evenodd;clip-rule:evenodd;fill:#A7A7A8;}
	.st1{fill:#00AEEF;}
	.st2{fill:#D82927;}
	.st3{fill:#00A8C4;}
	.st4{fill:#B9BABC;}
	.st5{fill:#F05225;}
	.st6{fill:#80BB41;}
	.st7{fill:#787878;}
	.st8{fill:#35A0DA;}
	.st9{fill:#FDB813;}
	.st10{clip-path:url(#SVGID_2_);}
	.st11{clip-path:url(#SVGID_6_);}
	.st12{clip-path:url(#SVGID_10_);}
	.st13{clip-path:url(#SVGID_14_);}
	.st14{clip-path:url(#SVGID_18_);}
	.st15{clip-path:url(#SVGID_22_);}
	.st16{clip-path:url(#SVGID_26_);}
	.st17{clip-path:url(#SVGID_30_);}
	.st18{fill:#010101;}
	.st19{fill:#E1251B;}
	.st20{fill:#708FA6;}
	.st21{fill:#1D1D1B;}
	.st22{fill:#005596;}
	.st23{fill-rule:evenodd;clip-rule:evenodd;fill:#005596;}
	.st24{fill:#EA0029;}
	.st25{fill:#FFFFFF;}
	.st26{fill-rule:evenodd;clip-rule:evenodd;fill:#EE312F;}
	.st27{fill:#F79020;}
	.st28{fill:#231F20;stroke:#393738;stroke-width:0.0938;stroke-miterlimit:10;}
	.st29{fill:#FFFFFF;stroke:#FFFFFF;stroke-width:0.0938;stroke-miterlimit:10;}
	.st30{fill-rule:evenodd;clip-rule:evenodd;fill:#B42025;}
	.st31{fill-rule:evenodd;clip-rule:evenodd;fill:#010101;}
	.st32{fill-rule:evenodd;clip-rule:evenodd;fill:#737272;}
	.st33{fill-rule:evenodd;clip-rule:evenodd;fill:#D71F27;}
</style>
<rect class="st0" width="263" height="140"/>
<g>
	<path class="st32" d="M145.81,69.22c-3.34-4.25-0.64-10.89,5.47-10.96h12.42l-1.12,2.97h-6.58h-3.47c-1.67,0.02-2.6,2.02-1.67,3.24
		c1.55,2.34,4.18,3.97,5.84,6.36c3.59,4.72-0.03,10.87-5.39,10.89h-13.66l1.12-2.97h7.43h3.36c1.65-0.02,2.58-2.01,1.71-3.21
		C149.92,73.34,147.5,71.24,145.81,69.22"/>
	<polygon class="st33" points="72.36,81.73 65.14,81.73 74,58.26 74.21,58.26 81.01,58.26 81.22,58.26 	"/>
	<polygon class="st32" points="133.26,81.73 126.45,81.73 135.31,58.26 142.12,58.26 	"/>
	<polygon class="st32" points="166.35,81.73 159.55,81.73 168.41,58.26 175.21,58.26 	"/>
	<path class="st32" d="M176.63,65.37c2.37-4.89,7.36-7.48,11.98-7.33h1.79h2.43c3.56,0.16,5.72,3.03,5.9,5.4
		c0.04,0.56,0.03,1.11-0.04,1.54c-0.06,0.26-0.12,0.53-0.18,0.8c-0.75,3.01-1.87,6.08-3.34,8.84c-2.37,4.88-7.36,7.48-11.98,7.33
		h-1.79h-0.02h-2.41c-3.56-0.16-5.71-3.03-5.9-5.4c-0.04-0.57-0.03-1.11,0.04-1.54c0.06-0.26,0.12-0.53,0.19-0.8
		C174.04,71.2,175.16,68.13,176.63,65.37 M189.51,60.47L189.51,60.47c-2.51,0.07-4.61,1.47-5.52,3.77l-4.49,11.95
		c-0.12,0.28-0.18,0.59-0.17,0.91v0c0,1.28,1.02,2.33,2.3,2.42h0.66c2.5-0.07,4.61-1.48,5.52-3.77l4.49-11.95
		c0.12-0.28,0.17-0.59,0.16-0.91V62.9c0-1.28-1.01-2.33-2.3-2.43L189.51,60.47z"/>
	<path class="st33" d="M50.17,67.3h8.6l3.41-9.03h7.22l-8.32,22.03c-0.01,0.01-0.01,0.01-0.01,0.02c-0.33,0.82-1.15,1.41-2.11,1.41
		h-5.64l4.24-11.22h-8.6l-4.24,11.22h-7.22l8.86-23.46h7.22L50.17,67.3z"/>
	<path class="st33" d="M90.02,67.09l11.77-8.82h5.4l-12.03,9.02l7.63,14.44h-6.13c0.02,0,0.04-0.01,0.05-0.01
		c-0.95,0.06-1.81-0.46-2.2-1.26c-0.01-0.01-0.01-0.01-0.01-0.02l0,0.01l-4.79-9.07l-1.8,1.35l-3.4,9h-7.22l8.86-23.46h7.22
		L90.02,67.09z"/>
	<path class="st32" d="M117.5,74.39l11.06-16.13h3.99l-15.44,22.47v0c-0.4,0.59-1.08,0.97-1.83,0.99h-0.14c-0.03,0-0.05,0-0.07,0
		c0,0,0.01,0,0.02,0h-0.24h-2.37h-1.17l-1.89-23.46h6.8L117.5,74.39z"/>
	<path class="st32" d="M205.9,65.84l-0.03-0.29l-6.13,16.17h-3.5l8.9-23.46h3.5h0.93l6.4,15.86l6.01-15.86h3.51l-8.9,23.46h-3.21
		c-0.89-0.05-1.65-0.59-1.98-1.36L205.9,65.84z"/>
</g>
</svg>
